<?xml version="1.0" encoding="utf-8"?>
<!-- Generator: Adobe Illustrator 23.0.1, SVG Export Plug-In . SVG Version: 6.00 Build 0)  -->
<svg version="1.1" id="Layer_1" xmlns="http://www.w3.org/2000/svg" xmlns:xlink="http://www.w3.org/1999/xlink" x="0px" y="0px"
	 viewBox="0 0 24 24" style="enable-background:new 0 0 24 24;" xml:space="preserve">
<style type="text/css">
	.st0{fill:none;stroke:#FA6969;stroke-width:2;stroke-linecap:round;stroke-linejoin:round;}
</style>
<path class="st0" d="M20.8,4.6c-2.1-2.1-5.6-2.1-7.8,0c0,0,0,0,0,0L12,5.7l-1.1-1.1c-2.1-2.1-5.6-2.1-7.8,0s-2.1,5.6,0,7.8l1.1,1.1
	l7.8,7.8l7.8-7.8l1.1-1.1C23,10.2,23,6.8,20.8,4.6C20.8,4.6,20.8,4.6,20.8,4.6z"/>
<path class="st0" d="M9.2,4.2c0,0,2.2,2.2,2.6,1.7s3.5-3.3,5.5-2.8s5.1,2.5,5,4.5s-0.8,4.9-3.6,7.4s-6.9,6.2-6.9,6.2l-5.6-5.3
	c0,0-5.5-6.2-4.7-8.2s1.9-4.9,4.8-4.3S7,2.3,9.2,4.2z"/>
<path class="st0" d="M9.8,5.4L12.1,21L2.4,8.6l0.1-1.6c0,0,1.3-0.2,1.4,0c0.1,0.2,3.5,5.6,3.5,5.6l2.8,3.9l0.7,1L8,8.3l0.8-3.8V8
	L8,6.8L6.1,4c0,0,1.3-0.3,1.5-0.3C7.7,3.7,8,5.1,8,5.1L4.1,4.8L3.1,7.3L6,5.3l0.1,2.3l0.3,2.8l0.5-3.4c0,0,1.4,5.3,1.5,5.4
	c0.1,0,4.7,6.8,4.7,6.8L11.6,6.4l0.8-0.9l2.1,12.9l1.7-1.6L13.5,5l1.7-0.8l2.5,10.7l2.3-2.1l-0.7-2l-2.6-7.4l2.2,0.5l-0.8,10.1
	l-0.9-8l4.3,3.8l0,1.2L20,11.7l0.5-5.8l-0.6-0.7L17,5.8L10,8"/>
</svg>
