<?xml version="1.0" encoding="utf-8"?>
<!-- Generator: Adobe Illustrator 23.0.1, SVG Export Plug-In . SVG Version: 6.00 Build 0)  -->
<svg version="1.1" id="Layer_1" xmlns="http://www.w3.org/2000/svg" xmlns:xlink="http://www.w3.org/1999/xlink" x="0px" y="0px"
	 viewBox="0 0 24 24" style="enable-background:new 0 0 24 24;" xml:space="preserve">
<style type="text/css">
	.st0{fill:#DD6E0A;}
	.st1{fill:none;stroke:#FFFFFF;stroke-width:2;stroke-linecap:round;stroke-linejoin:round;}
</style>
<path class="st0" d="M16.2,7.9L22.3,9L18,13.8l-0.7,6.4l-5-2.3l-4.9,2l-1-0.7c0,0,1.6-4.6,1.4-4.6c-0.2,0-2.6-2.5-2.8-2.6
	s0.3,0-0.4-0.3s-0.5-1.2-0.5-1.2L3.6,9.9L2.7,8.9c0,0,5.5-1.1,5.6-1.2S12,1.5,12,1.5l3.2,5.8L16.2,7.9z"/>
<polygon class="st1" points="12,2 15.1,8.3 22,9.3 17,14.1 18.2,21 12,17.8 5.8,21 7,14.1 2,9.3 8.9,8.3 "/>
</svg>
